<?xml version="1.0" standalone="no"?>
<!DOCTYPE svg PUBLIC "-//W3C//DTD SVG 20010904//EN"
 "http://www.w3.org/TR/2001/REC-SVG-20010904/DTD/svg10.dtd">
<svg version="1.0" xmlns="http://www.w3.org/2000/svg"
 width="300.000000pt" height="288.000000pt" viewBox="0 0 300.000000 288.000000"
 preserveAspectRatio="xMidYMid meet">
<metadata>
Created by potrace 1.10, written by Peter Selinger 2001-2011
</metadata>
<g transform="translate(0.000000,288.000000) scale(0.100000,-0.100000)"
fill="#000000" stroke="none">
<path d="M1273 2859 c-179 -23 -410 -116 -593 -237 -107 -72 -277 -240 -360
-357 -203 -287 -295 -631 -261 -982 27 -286 110 -494 313 -787 4 -6 9 -8 12
-5 3 3 -9 27 -28 55 -57 86 -108 203 -145 334 -30 109 -36 172 -35 375 0 154
3 193 23 270 107 414 360 730 726 906 197 95 362 132 580 133 330 0 614 -102
866 -313 240 -200 398 -476 461 -806 20 -105 17 -370 -5 -475 -32 -151 -83
-284 -167 -430 l-32 -55 32 35 c36 41 113 165 163 265 97 195 157 487 142 690
-27 365 -135 640 -356 900 -229 272 -604 469 -929 489 -88 6 -93 5 -64 -8 17
-8 73 -22 125 -31 328 -56 646 -236 852 -483 170 -204 273 -428 318 -694 17
-101 20 -150 16 -273 -3 -82 -11 -176 -18 -207 -14 -60 -29 -80 -21 -28 7 46
-17 285 -38 380 -138 631 -695 1080 -1340 1080 -408 0 -799 -184 -1064 -499
-50 -59 -136 -193 -171 -266 -94 -195 -133 -357 -142 -590 -6 -154 -10 -165
-28 -67 -4 20 -9 115 -12 210 -4 135 -1 196 12 275 31 185 105 373 208 529 76
116 88 130 202 243 207 207 447 330 760 390 66 13 131 28 145 34 21 8 17 10
-30 9 -30 0 -83 -4 -117 -9z"/>
<path d="M1580 2081 c-196 -53 -289 -156 -298 -332 l-4 -86 -27 13 c-37 19
-92 2 -142 -43 -21 -19 -39 -39 -39 -43 0 -4 18 -3 39 3 59 16 86 -6 101 -80
22 -115 50 -151 146 -184 32 -12 71 -28 86 -37 32 -18 58 -67 59 -109 l1 -28
9 30 c11 39 -4 95 -33 122 -13 11 -51 35 -84 52 -76 37 -117 85 -138 160 -21
76 -40 101 -77 101 -37 0 -38 17 -1 31 27 11 73 8 105 -6 14 -6 17 -2 17 32 0
102 56 230 130 295 46 42 171 108 202 108 10 0 18 5 18 10 0 6 -1 10 -2 9 -2
0 -32 -8 -68 -18z"/>
<path d="M533 1973 c-54 -70 -141 -227 -149 -268 -1 -5 -11 -30 -22 -55 -12
-25 -23 -58 -26 -73 -3 -15 -12 -51 -20 -80 -8 -29 -16 -61 -16 -72 -6 -141
-5 -333 2 -342 5 -7 7 -20 4 -30 -3 -10 1 -43 10 -73 9 -30 16 -63 17 -72 1
-10 5 -18 10 -18 4 0 6 -4 3 -9 -3 -5 2 -26 11 -47 9 -22 18 -42 19 -46 1 -5
3 -10 4 -13 1 -3 3 -8 4 -12 4 -20 108 -202 133 -232 15 -18 28 -37 28 -42 0
-7 201 -207 238 -237 9 -6 21 -12 27 -12 5 0 10 -3 10 -7 0 -5 18 -17 40 -27
22 -11 40 -23 40 -28 0 -5 4 -7 9 -4 5 4 11 3 13 -1 4 -11 128 -75 128 -67 0
3 7 1 15 -6 8 -7 15 -10 15 -7 0 3 19 -2 42 -13 22 -10 47 -16 55 -13 7 3 13
0 13 -7 0 -6 3 -9 8 -6 4 2 32 -2 62 -10 131 -35 379 -35 494 0 27 8 53 13 57
10 4 -2 10 0 14 6 4 6 10 8 15 5 4 -3 28 4 53 14 25 11 48 17 51 14 3 -4 6 -1
6 5 0 7 3 11 8 10 15 -3 62 15 62 24 0 5 5 6 10 3 6 -3 10 -1 10 5 0 6 5 8 10
5 6 -3 10 -1 10 4 0 6 9 11 19 11 11 0 21 3 23 8 2 4 23 18 48 31 25 14 47 27
50 30 3 4 23 19 45 35 52 38 193 180 231 231 16 22 37 49 46 59 10 10 15 23
12 28 -3 4 -1 8 4 8 10 0 111 200 117 231 2 11 13 45 25 76 11 30 18 58 15 63
-3 5 -1 11 5 15 6 4 8 10 5 15 -3 5 -1 29 6 52 16 62 21 241 8 333 -7 44 -11
90 -11 103 1 12 -3 22 -9 22 -5 0 -8 4 -4 9 3 6 -3 35 -14 65 -10 30 -16 57
-13 60 3 3 -1 6 -8 6 -7 0 -11 3 -7 6 3 4 -3 24 -14 45 -11 22 -17 39 -14 39
8 0 -81 165 -116 216 -30 44 -59 72 -59 57 0 -5 4 -13 9 -18 18 -19 101 -189
101 -207 0 -10 5 -18 12 -18 6 0 9 -3 5 -6 -3 -3 3 -30 13 -60 11 -30 17 -61
13 -69 -3 -8 -1 -15 3 -15 21 0 24 -380 4 -430 -1 -3 -2 -8 -1 -12 0 -3 -8
-31 -18 -61 -11 -31 -17 -58 -14 -61 4 -3 1 -6 -5 -6 -7 0 -12 -8 -12 -19 0
-23 -36 -106 -61 -142 -10 -14 -16 -29 -12 -33 3 -3 1 -6 -5 -6 -6 0 -14 -10
-18 -22 -17 -56 -180 -238 -274 -308 -18 -14 -38 -30 -45 -36 -6 -6 -21 -15
-33 -18 -12 -4 -22 -12 -22 -17 0 -6 -4 -7 -10 -4 -5 3 -10 2 -10 -3 0 -4 -16
-14 -35 -22 -19 -8 -35 -18 -35 -24 0 -5 -3 -6 -7 -3 -3 4 -17 0 -31 -9 -13
-9 -36 -18 -50 -20 -15 -3 -29 -10 -33 -15 -3 -6 -10 -11 -15 -10 -5 0 -18 -2
-30 -5 -11 -3 -27 -6 -35 -7 -8 -2 -19 -6 -26 -10 -6 -4 -18 -4 -27 -1 -9 3
-16 1 -16 -6 0 -6 -4 -9 -9 -5 -5 3 -31 0 -58 -5 -69 -16 -246 -14 -327 3 -38
9 -75 13 -83 10 -7 -3 -13 0 -13 7 0 6 -4 9 -9 5 -5 -3 -32 4 -59 14 -27 11
-53 17 -56 14 -3 -4 -6 0 -6 7 0 7 -3 11 -6 8 -5 -6 -71 22 -124 52 -14 8 -27
15 -30 15 -6 1 -63 38 -70 45 -3 3 -21 17 -40 30 -48 32 -117 95 -165 151 -65
74 -85 99 -85 104 0 3 -8 14 -17 25 -10 11 -18 24 -18 28 0 4 -10 21 -22 38
-12 17 -20 34 -16 38 3 3 2 6 -3 6 -8 0 -36 59 -35 75 0 2 -11 28 -24 57 -13
28 -22 55 -19 60 3 4 0 8 -6 8 -6 0 -9 3 -6 8 2 4 -4 43 -15 87 -10 43 -16 89
-13 102 4 13 1 30 -6 38 -12 15 -12 31 4 205 3 25 11 70 19 100 9 30 13 58 11
62 -3 5 -1 8 5 8 5 0 9 8 9 18 -1 15 30 101 53 145 22 42 35 64 58 100 32 50
21 58 -16 10z m-170 -610 c15 -307 115 -547 319 -759 310 -323 767 -435 1198
-293 223 74 448 248 584 452 124 186 180 366 193 615 3 67 8 121 10 119 1 -2
10 -46 19 -98 20 -117 14 -294 -16 -423 -94 -417 -412 -756 -820 -879 -290
-87 -600 -62 -863 70 -210 105 -352 233 -492 445 -29 43 -97 187 -113 238 -53
166 -67 271 -58 440 12 248 30 279 39 73z"/>
<path d="M1541 1978 c-23 -13 -52 -39 -64 -58 l-21 -35 42 38 c50 44 79 57
128 57 21 0 33 4 29 10 -11 17 -70 11 -114 -12z"/>
<path d="M1513 1890 c-31 -19 -62 -60 -45 -60 5 0 19 11 32 25 25 27 82 47
106 38 8 -3 14 0 14 6 0 18 -73 12 -107 -9z"/>
<path d="M1481 1794 c-17 -14 -31 -30 -31 -36 0 -5 14 2 31 16 33 28 72 42 88
31 6 -3 11 -1 11 4 0 22 -68 11 -99 -15z"/>
<path d="M1732 1795 c-88 -25 -130 -59 -237 -193 -46 -58 -99 -92 -144 -92
-19 0 -30 -4 -26 -10 3 -5 35 -10 70 -10 78 0 103 18 175 125 60 88 109 131
174 150 95 29 198 13 305 -46 65 -37 78 -32 19 8 -104 70 -234 97 -336 68z"/>
<path d="M1449 1421 c6 -10 26 -32 46 -50 43 -37 97 -41 161 -12 40 18 65 41
45 41 -5 0 -12 -4 -15 -9 -19 -30 -143 -14 -201 25 -43 29 -49 30 -36 5z"/>
<path d="M1031 1260 c-41 -11 -124 -42 -186 -70 -62 -27 -139 -56 -171 -64
l-59 -14 90 -1 c70 0 109 5 175 25 237 72 253 75 325 71 87 -5 156 -34 213
-90 53 -52 54 -35 2 32 -50 63 -101 98 -171 117 -72 18 -129 17 -218 -6z"/>
<path d="M1727 1260 c-70 -22 -117 -56 -157 -115 -41 -59 -38 -64 11 -20 70
63 120 80 229 79 84 0 110 -6 225 -44 117 -39 141 -43 240 -46 108 -3 109 -3
55 10 -30 7 -115 38 -188 69 -201 87 -303 103 -415 67z"/>
<path d="M1030 1129 c-47 -10 -138 -37 -203 -59 -134 -46 -226 -69 -277 -71
-75 -1 5 -18 92 -18 67 -1 114 6 205 30 212 56 241 60 373 57 126 -3 145 -7
213 -52 45 -30 22 4 -36 52 -100 82 -199 99 -367 61z"/>
<path d="M1730 1141 c-45 -14 -104 -48 -148 -86 -24 -21 -41 -39 -40 -41 2 -2
30 10 62 26 56 29 65 30 185 30 108 0 143 -5 246 -31 205 -52 238 -58 320 -58
105 1 141 13 60 22 -33 3 -139 31 -235 62 -244 79 -370 100 -450 76z"/>
</g>
</svg>
